<svg width="22" height="22" viewBox="0 0 22 22" fill="none" xmlns="http://www.w3.org/2000/svg">
<path d="M20.3373 5.90968C20.1209 5.02923 19.4359 4.33222 18.6066 4.1121C17.0563 3.67188 10.9269 3.67188 10.9269 3.67188C10.9269 3.67188 4.76152 3.67188 3.21116 4.1121C2.38189 4.33222 1.69684 5.02923 1.48051 5.90968C1.04785 7.45047 1.04785 10.7522 1.04785 10.7522C1.04785 10.7522 1.04785 14.0172 1.48051 15.5947C1.69684 16.4751 2.38189 17.1355 3.21116 17.3556C4.76152 17.7591 10.9269 17.7591 10.9269 17.7591C10.9269 17.7591 17.0563 17.7591 18.6066 17.3556C19.4359 17.1355 20.1209 16.4751 20.3373 15.5947C20.7699 14.0172 20.7699 10.7522 20.7699 10.7522C20.7699 10.7522 20.7699 7.45047 20.3373 5.90968ZM8.90785 13.7237V7.78064L14.0276 10.7522L8.90785 13.7237Z" fill="white" style="fill:white;fill-opacity:1;"/>
</svg>
