<svg width="22" height="22" viewBox="0 0 22 22" fill="none" xmlns="http://www.w3.org/2000/svg">
<path fill-rule="evenodd" clip-rule="evenodd" d="M2.3457 4.29837C2.3457 3.13847 3.26947 2.19727 4.40789 2.19727C5.54561 2.19727 6.46937 3.13847 6.47009 4.29837C6.47009 5.45828 5.54632 6.41916 4.40789 6.41916C3.26947 6.41916 2.3457 5.45828 2.3457 4.29837ZM19.5139 19.6951L19.5182 19.6943V13.2773C19.5182 10.138 18.8549 7.71983 15.2528 7.71983C13.5212 7.71983 12.3592 8.688 11.8848 9.60587H11.8347V8.01291H8.41933V19.6943H11.9756V13.9101C11.9756 12.3871 12.259 10.9145 14.1101 10.9145C15.934 10.9145 15.9612 12.6525 15.9612 14.0078V19.6951H19.5139ZM2.62795 8.01309H6.18849V19.6945H2.62795V8.01309Z" fill="white" style="fill:white;fill-opacity:1;"/>
</svg>
