<svg width="15" height="17" viewBox="0 0 15 17" fill="none" xmlns="http://www.w3.org/2000/svg">
<g clip-path="url(#clip0_8311_1904)">
<path d="M13.4583 3.98258C12.6402 3.80102 11.8994 3.35311 11.3439 2.70414C10.7883 2.05516 10.4471 1.23906 10.37 0.374801V0H7.54783V11.6197C7.54609 12.1341 7.38902 12.635 7.09871 13.052C6.80841 13.4691 6.39944 13.7813 5.9293 13.9447C5.45915 14.1082 4.95146 14.1147 4.47755 13.9634C4.00365 13.8121 3.58736 13.5105 3.28718 13.101C2.98234 12.6847 2.81324 12.1785 2.8044 11.6558C2.79556 11.1331 2.94743 10.621 3.238 10.1939C3.52857 9.76678 3.94273 9.44677 4.42042 9.28029C4.89811 9.11381 5.41449 9.10952 5.89469 9.26804V6.29343C4.82388 6.13985 3.73358 6.33736 2.77629 6.85832C1.819 7.37928 1.04261 8.19764 0.555712 9.19893C0.0688123 10.2002 -0.104241 11.3344 0.060756 12.4427C0.225754 13.5511 0.72055 14.5782 1.47594 15.3804C2.1963 16.1451 3.11997 16.6698 4.12904 16.8874C5.1381 17.105 6.18678 17.0058 7.14122 16.6023C8.09566 16.1988 8.91256 15.5094 9.48765 14.6221C10.0627 13.7348 10.3699 12.6898 10.37 11.6205V5.68321C11.5105 6.52913 12.878 6.98272 14.28 6.98014V4.07097C14.0039 4.07132 13.7285 4.0417 13.4583 3.98258Z" fill="white" style="fill:white;fill-opacity:1;"/>
</g>
<defs>
<clipPath id="clip0_8311_1904">
<rect width="15" height="17" fill="white" style="fill:white;fill-opacity:1;"/>
</clipPath>
</defs>
</svg>
