<svg width="194" height="56" viewBox="0 0 194 56" fill="none" xmlns="http://www.w3.org/2000/svg">
<g clip-path="url(#clip0_8311_1879)">
<path d="M102.209 18.5465H107.482V45.4734H102.209V18.5465Z" fill="white" style="fill:white;fill-opacity:1;"/>
<path d="M132.828 36.0563C132.548 37.6044 131.893 38.8913 130.867 39.917C129.527 41.257 127.726 41.9269 125.466 41.9269C123.032 41.9269 121.083 40.9958 119.622 39.1335C118.161 37.2713 117.43 34.7921 117.43 31.6959C117.43 28.7738 118.161 26.4422 119.622 24.7011C121.083 22.96 123.032 22.0932 125.466 22.0932C127.726 22.0932 129.535 22.7366 130.89 24.0236C131.965 25.0455 132.623 26.3552 132.869 27.9638H138.18C137.938 26.2075 137.381 24.6216 136.499 23.2136C135.405 21.4573 133.899 20.1022 131.984 19.1408C130.069 18.1832 127.896 17.7063 125.462 17.7063C122.816 17.7063 120.485 18.2816 118.467 19.4285C116.45 20.5754 114.875 22.2219 113.744 24.3604C112.612 26.499 112.048 28.9782 112.048 31.7981C112.048 34.7921 112.623 37.3735 113.77 39.5461C114.917 41.7225 116.503 43.3917 118.52 44.5575C120.538 45.7233 122.85 46.3062 125.462 46.3062C127.896 46.3062 130.072 45.8369 131.984 44.8982C133.895 43.9595 135.409 42.6007 136.522 40.8255C137.4 39.4288 137.953 37.8353 138.18 36.0487H132.82L132.828 36.0563Z" fill="white" style="fill:white;fill-opacity:1;"/>
<path d="M96.9667 22.1499V18.5503H89.5025V12.8008H87.6441L85.0702 17.1422C84.529 18.0507 83.6849 18.7395 82.6819 19.0802L79.6387 20.1135V22.1537H84.23V38.5392C84.23 40.5226 84.5252 42.0366 85.1157 43.0813C85.7061 44.126 86.6373 44.83 87.909 45.1933C89.1808 45.5605 90.9636 45.7422 93.2573 45.7422C94.3701 45.7422 95.6041 45.6892 96.9629 45.587V41.2039C95.6078 41.3099 94.442 41.3591 93.4655 41.3591C91.9704 41.3591 90.9333 41.132 90.3618 40.6816C89.7864 40.2311 89.4988 39.3076 89.4988 37.9147V22.1537H96.9629L96.9667 22.1499Z" fill="white" style="fill:white;fill-opacity:1;"/>
<path d="M161.367 39.4743C160.08 37.2828 159.437 34.7619 159.437 31.908C159.437 29.054 160.08 26.6127 161.367 24.4703C162.654 22.3318 164.395 20.6701 166.587 19.4854C168.779 18.3007 171.144 17.7102 173.684 17.7102C176.224 17.7102 178.589 18.3007 180.781 19.4854C182.973 20.6701 184.714 22.328 186.001 24.4703C187.288 26.6089 187.931 29.0881 187.931 31.908C187.931 34.7278 187.288 37.2828 186.001 39.4743C184.714 41.6659 182.984 43.354 180.807 44.5349C178.635 45.7197 176.258 46.3101 173.684 46.3101C171.11 46.3101 168.733 45.7197 166.561 44.5349C164.388 43.3502 162.654 41.6659 161.367 39.4743ZM182.605 31.908C182.605 28.8459 181.795 26.4461 180.179 24.705C178.563 22.9639 176.394 22.0971 173.684 22.0971C170.974 22.0971 168.854 22.9677 167.238 24.705C165.622 26.4461 164.812 28.8459 164.812 31.908C164.812 34.9701 165.622 37.4909 167.238 39.2661C168.854 41.0413 171.004 41.927 173.684 41.927C176.364 41.927 178.563 41.0413 180.179 39.2661C181.795 37.4909 182.605 35.0382 182.605 31.908Z" fill="white" style="fill:white;fill-opacity:1;"/>
<path d="M104.846 15.8479C106.531 15.8479 107.897 14.482 107.897 12.7971C107.897 11.1122 106.531 9.74634 104.846 9.74634C103.161 9.74634 101.795 11.1122 101.795 12.7971C101.795 14.482 103.161 15.8479 104.846 15.8479Z" fill="white" style="fill:white;fill-opacity:1;"/>
<path d="M191.35 20.5643C191.275 20.4961 191.154 20.4621 190.983 20.4545V20.4318C191.157 20.4204 191.301 20.3599 191.407 20.2539C191.513 20.1441 191.57 20.0079 191.57 19.8451C191.57 19.6634 191.502 19.5196 191.369 19.4136C191.233 19.3076 191.048 19.2584 190.813 19.2584H189.689V21.5938H190.124V20.7195H190.684C190.786 20.7195 190.862 20.727 190.915 20.746C190.968 20.7611 191.01 20.7914 191.036 20.8368C191.063 20.8822 191.085 20.9466 191.097 21.0336L191.191 21.5976H191.63L191.502 20.9049C191.475 20.746 191.422 20.6324 191.347 20.5643H191.35ZM190.711 20.3977H190.124V19.6142H190.711C190.843 19.6142 190.949 19.6483 191.025 19.7164C191.104 19.7845 191.142 19.8754 191.142 19.9889C191.142 20.1101 191.104 20.2085 191.021 20.2842C190.942 20.3599 190.836 20.3939 190.707 20.3939L190.711 20.3977Z" fill="white" style="fill:white;fill-opacity:1;"/>
<path d="M190.658 17.7028C189.156 17.7028 187.937 18.9253 187.937 20.4242C187.937 21.9231 189.159 23.1457 190.658 23.1457C192.157 23.1457 193.38 21.9231 193.38 20.4242C193.38 18.9253 192.157 17.7028 190.658 17.7028ZM190.658 22.6801C189.413 22.6801 188.402 21.6695 188.402 20.4242C188.402 19.1789 189.413 18.1683 190.658 18.1683C191.904 18.1683 192.914 19.1789 192.914 20.4242C192.914 21.6695 191.904 22.6801 190.658 22.6801Z" fill="white" style="fill:white;fill-opacity:1;"/>
<path d="M157.148 22.15V18.5504H149.683V12.8009H147.825L145.251 17.1424C144.71 18.0508 143.866 18.7397 142.863 19.0803L139.82 20.1136V22.1538H144.411V38.5393C144.411 40.5227 144.706 42.0367 145.297 43.0814C145.887 44.1261 146.818 44.8301 148.09 45.1935C149.362 45.5606 151.144 45.7423 153.438 45.7423C154.551 45.7423 155.785 45.6893 157.144 45.5871V41.204C155.789 41.31 154.623 41.3592 153.646 41.3592C152.151 41.3592 151.114 41.1321 150.543 40.6817C149.967 40.2313 149.68 39.3077 149.68 37.9148V22.1538H157.144L157.148 22.15Z" fill="white" style="fill:white;fill-opacity:1;"/>
<path d="M51.4049 0H4.59128C2.05529 0 0 2.05907 0 4.59507V51.4087C0 53.9447 2.05529 56 4.59128 56H51.4049C53.9409 56 56 53.9447 56 51.4087V4.59507C56 2.05907 53.9409 0 51.4049 0ZM44.3307 19.9397H32.6651V45.6062H23.3311V38.0853V29.0693C23.3311 28.4523 23.5772 27.8618 24.0124 27.4266L30.0875 21.3478C30.2427 21.1926 30.3297 20.9844 30.3297 20.7649C30.3297 20.5453 30.2389 20.3334 30.0875 20.182C29.9361 20.0306 29.7317 19.9397 29.5046 19.9397H11.6656V12.9411H44.3307V19.9397Z" fill="white" style="fill:white;fill-opacity:1;"/>
</g>
<defs>
<clipPath id="clip0_8311_1879">
<rect width="193.379" height="56" fill="white" style="fill:white;fill-opacity:1;"/>
</clipPath>
</defs>
</svg>
